<svg xmlns="http://www.w3.org/2000/svg" viewBox="0 0 24 14.5">
  <title>account-group</title>
  <path fill="#f7f7f7" d="M12 0C13.933 0 15.5 1.567 15.5 3.5C15.5 5.433 13.933 7 12 7C10.067 7 8.5 5.433 8.5 3.5C8.5 1.567 10.067 0 12 0M5 2.5C5.56 2.5 6.08 2.65 6.53 2.92C6.38 4.35 6.8 5.77 7.66 6.88C7.16 7.84 6.16 8.5 5 8.5C3.3431 8.5 2 7.1569 2 5.5C2 3.8431 3.3431 2.5 5 2.5M19 2.5C20.6569 2.5 22 3.8431 22 5.5C22 7.1569 20.6569 8.5 19 8.5C17.84 8.5 16.84 7.84 16.34 6.88C17.2 5.77 17.62 4.35 17.47 2.92C17.92 2.65 18.44 2.5 19 2.5M5.5 12.75C5.5 10.68 8.41 9 12 9C15.59 9 18.5 10.68 18.5 12.75V14.5H5.5V12.75M0 14.5V13C0 11.61 1.89 10.44 4.45 10.1C3.86 10.78 3.5 11.72 3.5 12.75V14.5H0M24 14.5H20.5V12.75C20.5 11.72 20.14 10.78 19.55 10.1C22.11 10.44 24 11.61 24 13V14.5Z" />
</svg>