<svg xmlns="http://www.w3.org/2000/svg" viewBox="0 0 18 20">
  <title>source-fork</title>
  <path fill="#06030c" d="M3 0C4.6569 0 6 1.3431 6 3C6 4.28 5.19 5.38 4.06 5.81C4.15 6.27 4.39 6.83 5 7.63C6 8.92 8 10.83 9 12.17C10 10.83 12 8.92 13 7.63C13.61 6.83 13.85 6.27 13.94 5.81C12.81 5.38 12 4.28 12 3C12 1.3431 13.3431 0 15 0C16.6569 0 18 1.3431 18 3C18 4.32 17.14 5.45 15.95 5.85C15.87 6.37 15.64 7 15 7.83C14 9.17 12 11.08 11 12.38C10.39 13.17 10.15 13.73 10.06 14.19C11.19 14.62 12 15.72 12 17C12 18.6569 10.6569 20 9 20C7.3431 20 6 18.6569 6 17C6 15.72 6.81 14.62 7.94 14.19C7.85 13.73 7.61 13.17 7 12.38C6 11.08 4 9.17 3 7.83C2.36 7 2.13 6.37 2.05 5.85C0.86 5.45 0 4.32 0 3C0 1.3431 1.3431 0 3 0M3 2C2.4477 2 2 2.4477 2 3C2 3.5523 2.4477 4 3 4C3.5523 4 4 3.5523 4 3C4 2.4477 3.5523 2 3 2M15 2C14.4477 2 14 2.4477 14 3C14 3.5523 14.4477 4 15 4C15.5523 4 16 3.5523 16 3C16 2.4477 15.5523 2 15 2M9 16C8.4477 16 8 16.4477 8 17C8 17.5523 8.4477 18 9 18C9.5523 18 10 17.5523 10 17C10 16.4477 9.5523 16 9 16Z" />
</svg>