<svg xmlns="http://www.w3.org/2000/svg" viewBox="0 0 22 18">
  <title>eye-plus-outline</title>
  <path fill="#06030c" d="M11 0C6 0 1.73 3.11 0 7.5C1.73 11.89 6 15 11 15C11.36 15 11.72 15 12.08 14.95C12.03 14.63 12 14.32 12 14C12 13.64 12.04 13.28 12.1 12.92C11.74 12.96 11.37 13 11 13C7.24 13 3.83 10.86 2.18 7.5C3.83 4.14 7.24 2 11 2C14.76 2 18.17 4.14 19.82 7.5C19.7 7.74 19.56 7.95 19.43 8.18C20.09 8.34 20.72 8.61 21.29 9C21.56 8.5 21.8 8 22 7.5C20.27 3.11 16 0 11 0M11 4.5C9.3431 4.5 8 5.8431 8 7.5C8 9.1569 9.3431 10.5 11 10.5C12.6569 10.5 14 9.1569 14 7.5C14 5.8431 12.6569 4.5 11 4.5M17 10V13H14V15H17V18H19V15H22V13H19V10H17Z" />
</svg>