<svg xmlns="http://www.w3.org/2000/svg" viewBox="0 0 18 18">
  <title>shield-account-variant</title>
  <path fill="#f7f7f7" d="M14 8C14.3 8 14.7 8 15 8.1V3.3L7.5 0L0 3.3V8.2C0 12.7 3.2 17 7.5 18C8.1 17.9 8.6 17.7 9.1 17.5C8.4 16.5 8 15.3 8 14C8 10.7 10.7 8 14 8M14 10C11.8 10 10 11.8 10 14S11.8 18 14 18S18 16.2 18 14S16.2 10 14 10M14 11.4C14.6 11.4 15.1 11.9 15.1 12.5C15.1 13.1 14.6 13.6 14 13.6S12.9 13.1 12.9 12.5S13.4 11.4 14 11.4M14 16.8C13.1 16.8 12.3 16.3 11.8 15.6C11.9 14.9 13.3 14.5 14 14.5S16.2 14.9 16.2 15.6C15.7 16.3 14.9 16.8 14 16.8Z" />
</svg>