<svg xmlns="http://www.w3.org/2000/svg" viewBox="0 0 24 18">
  <title>card-account-details-outline</title>
  <path fill="#f7f7f7" d="M22 0H2C0.91 0.04 0.04 0.91 0 2V16C0.04 17.09 0.91 17.96 2 18H22C23.09 17.96 23.96 17.09 24 16V2C23.96 0.91 23.09 0.04 22 0M22 16H2V2H22V16M14 14V12.75C14 11.09 10.66 10.25 9 10.25C7.34 10.25 4 11.09 4 12.75V14H14M9 4C7.6193 4 6.5 5.1193 6.5 6.5C6.5 7.8807 7.6193 9 9 9C10.3807 9 11.5 7.8807 11.5 6.5C11.5 5.1193 10.3807 4 9 4M14 4V5H20V4H14M14 6V7H20V6H14M14 8V9H18V8H14" />
</svg>