<svg xmlns="http://www.w3.org/2000/svg" viewBox="0 0 19.45424476333334 20">
  <title>cog</title>
  <path fill="#f7f7f7"  d="M9.7293 13.5C7.7963 13.5 6.2293 11.933 6.2293 10C6.2293 8.067 7.7963 6.5 9.7293 6.5C11.6623 6.5 13.2293 8.067 13.2293 10C13.2293 11.933 11.6623 13.5 9.7293 13.5M17.1593 10.97C17.1993 10.65 17.2293 10.33 17.2293 10C17.2293 9.67 17.1993 9.34 17.1593 9L19.2693 7.37C19.4593 7.22 19.5093 6.95 19.3893 6.73L17.3893 3.27C17.2693 3.05 16.9993 2.96 16.7793 3.05L14.2893 4.05C13.7693 3.66 13.2293 3.32 12.5993 3.07L12.2293 0.42C12.1893 0.18 11.9793 0 11.7293 0H7.7293C7.4793 0 7.2693 0.18 7.2293 0.42L6.8593 3.07C6.2293 3.32 5.6893 3.66 5.1693 4.05L2.6793 3.05C2.4593 2.96 2.1893 3.05 2.0693 3.27L0.0693 6.73C-0.0607 6.95 -0.0007 7.22 0.1893 7.37L2.2993 9C2.2593 9.34 2.2293 9.67 2.2293 10C2.2293 10.33 2.2593 10.65 2.2993 10.97L0.1893 12.63C-0.0007 12.78 -0.0607 13.05 0.0693 13.27L2.0693 16.73C2.1893 16.95 2.4593 17.03 2.6793 16.95L5.1693 15.94C5.6893 16.34 6.2293 16.68 6.8593 16.93L7.2293 19.58C7.2693 19.82 7.4793 20 7.7293 20H11.7293C11.9793 20 12.1893 19.82 12.2293 19.58L12.5993 16.93C13.2293 16.67 13.7693 16.34 14.2893 15.94L16.7793 16.95C16.9993 17.03 17.2693 16.95 17.3893 16.73L19.3893 13.27C19.5093 13.05 19.4593 12.78 19.2693 12.63L17.1593 10.97Z" />
</svg>